<?xml version="1.0" encoding="iso-8859-1"?>
<!-- Uploaded to: SVG Repo, www.svgrepo.com, Generator: SVG Repo Mixer Tools -->
<!DOCTYPE svg PUBLIC "-//W3C//DTD SVG 1.1//EN" "http://www.w3.org/Graphics/SVG/1.1/DTD/svg11.dtd">
<svg fill="white" version="1.1" id="Capa_1" xmlns="http://www.w3.org/2000/svg" xmlns:xlink="http://www.w3.org/1999/xlink" 
	 width="30px" height="30px" viewBox="0 0 89.146 89.146"
	 xml:space="preserve">
<g>
	<path d="M89.102,29.136c-0.237-2.28-1.41-4.186-3.217-5.23c-0.944-0.544-2.034-0.831-3.154-0.831c-0.438,0-0.876,0.057-1.31,0.14
		c0.456-4.289-1.661-8.096-5.283-9.067c-0.547-0.147-1.12-0.222-1.69-0.222c-2.555,0-4.942,1.493-6.523,3.847
		c-1.583-2.354-3.969-3.847-6.524-3.847c-0.569,0-1.138,0.075-1.688,0.222c-3.622,0.972-5.739,4.777-5.278,9.067
		c-0.438-0.083-0.871-0.14-1.314-0.14c-1.117,0-2.205,0.29-3.152,0.831c-1.809,1.047-2.981,2.953-3.216,5.23
		c-0.191,1.888,0.267,3.912,1.307,5.702c1.321,2.293,3.374,3.874,5.598,4.422c-0.565,1.629-0.905,3.359-0.905,5.159
		c0,2.189,0.372,3.782,1.166,5.012c1.017,1.569,2.659,2.432,4.623,2.432c1.451,0,2.886-0.454,4.416-0.938
		c1.625-0.514,3.311-1.045,4.978-1.045c1.668,0,3.355,0.534,4.978,1.045c1.526,0.483,2.97,0.938,4.418,0.938
		c1.743,0,5.79-0.728,5.79-7.448c0-1.797-0.338-3.528-0.917-5.156c2.222-0.546,4.274-2.128,5.596-4.419
		C88.832,33.046,89.297,31.022,89.102,29.136z M86.783,34.256c-1.138,1.977-2.91,3.387-4.863,3.869l-1.252,0.308l0.434,1.217
		c0.562,1.581,0.846,3.185,0.846,4.769c0,5.191-2.516,6.277-4.621,6.277c-1.269,0-2.623-0.429-4.064-0.885
		c-1.711-0.538-3.481-1.1-5.329-1.1s-3.615,0.562-5.342,1.104c-1.431,0.451-2.781,0.88-4.049,0.88c-1.581,0-2.838-0.652-3.647-1.897
		c-0.666-1.036-0.977-2.428-0.977-4.38c0-1.582,0.285-3.188,0.844-4.771l0.434-1.214l-1.248-0.308
		c-1.95-0.481-3.725-1.892-4.863-3.873c-0.917-1.579-1.322-3.354-1.154-4.999c0.192-1.899,1.154-3.482,2.638-4.337
		c0.767-0.441,1.655-0.678,2.565-0.678c0.319,0,0.669,0.038,1.091,0.12l1.549,0.297l-0.166-1.569
		c-0.409-3.796,1.411-7.008,4.425-7.816c0.451-0.122,0.915-0.182,1.382-0.182c2.083,0,4.152,1.245,5.555,3.331l0.97,1.443
		l0.97-1.443c1.4-2.086,3.474-3.331,5.554-3.331c0.468,0,0.931,0.06,1.385,0.182c3.009,0.807,4.829,4.021,4.426,7.816l-0.169,1.569
		l1.549-0.297c0.427-0.082,0.771-0.12,1.088-0.12c0.915,0,1.8,0.234,2.57,0.678c1.483,0.855,2.441,2.436,2.638,4.337
		C88.113,30.897,87.698,32.675,86.783,34.256z"/>
	<path d="M67.933,30.781c-4.188-0.002-11.679,6.105-11.679,13.637s5.229,1.957,11.679,1.957c6.453,0,11.68,5.575,11.68-1.957
		S72.121,30.783,67.933,30.781z"/>
	<path d="M69.824,21.933c0.81-3.018,3.231-4.992,5.41-4.406c2.184,0.584,3.292,3.504,2.484,6.523
		c-0.81,3.018-3.232,4.991-5.413,4.405C70.125,27.873,69.014,24.951,69.824,21.933z M63.562,28.457
		c2.183-0.584,3.291-3.503,2.481-6.521c-0.808-3.018-3.229-4.989-5.41-4.405s-3.294,3.504-2.484,6.521
		C58.957,27.07,61.382,29.043,63.562,28.457z M57.374,29.468c-1.383-2.396-3.905-3.53-5.637-2.53c-1.731,1-2.015,3.751-0.632,6.147
		c1.387,2.396,3.91,3.53,5.639,2.53C58.476,34.617,58.756,31.862,57.374,29.468z M84.136,26.934c-1.731-1-4.257,0.133-5.64,2.53
		c-1.384,2.396-1.105,5.147,0.628,6.147c1.731,1,4.254-0.133,5.639-2.53S85.862,27.931,84.136,26.934z"/>
	<path d="M39.171,47.26c-0.943-0.542-2.035-0.83-3.151-0.83c-0.439,0-0.876,0.055-1.311,0.142c0.458-4.287-1.658-8.094-5.283-9.066
		c-0.547-0.147-1.117-0.223-1.687-0.223c-2.555,0-4.943,1.493-6.524,3.847c-1.582-2.354-3.969-3.847-6.524-3.847
		c-0.57,0-1.137,0.075-1.687,0.223c-3.625,0.972-5.739,4.776-5.281,9.066C7.29,46.49,6.853,46.43,6.411,46.43
		c-1.116,0-2.206,0.292-3.151,0.83c-1.81,1.05-2.982,2.957-3.216,5.233c-0.194,1.889,0.268,3.909,1.306,5.7
		c1.32,2.292,3.373,3.873,5.594,4.423c-0.572,1.629-0.909,3.36-0.909,5.16c0,2.189,0.372,3.782,1.166,5.012
		c1.016,1.569,2.659,2.432,4.625,2.432c1.449,0,2.887-0.454,4.415-0.938c1.625-0.514,3.31-1.045,4.978-1.045
		s3.352,0.533,4.977,1.045c1.526,0.483,2.969,0.938,4.415,0.938c1.743,0,5.791-0.729,5.791-7.448c0-1.798-0.336-3.528-0.916-5.155
		c2.219-0.545,4.274-2.131,5.596-4.421c1.035-1.793,1.5-3.818,1.306-5.702C42.153,50.214,40.981,48.31,39.171,47.26z M40.07,57.615
		c-1.14,1.978-2.912,3.385-4.863,3.868l-1.253,0.306l0.432,1.216c0.562,1.583,0.847,3.185,0.847,4.768
		c0,5.194-2.516,6.28-4.623,6.28c-1.266,0-2.621-0.432-4.065-0.886c-1.709-0.536-3.479-1.102-5.327-1.102s-3.616,0.562-5.342,1.106
		c-1.432,0.454-2.784,0.881-4.05,0.881c-1.582,0-2.84-0.655-3.646-1.896c-0.666-1.035-0.977-2.427-0.977-4.379
		c0-1.583,0.285-3.189,0.845-4.772l0.433-1.216l-1.255-0.303c-1.948-0.484-3.72-1.894-4.862-3.874c-0.914-1.578-1.323-3.357-1.154-5
		c0.194-1.897,1.156-3.48,2.637-4.338c0.769-0.438,1.656-0.676,2.567-0.676c0.319,0,0.668,0.036,1.09,0.119l1.549,0.296
		l-0.167-1.569c-0.407-3.797,1.413-7.008,4.423-7.817c0.452-0.122,0.916-0.183,1.383-0.183c2.08,0,4.153,1.246,5.555,3.332
		l0.969,1.443l0.97-1.443c1.399-2.086,3.475-3.332,5.554-3.332c0.468,0,0.932,0.061,1.382,0.183c3.011,0.806,4.832,4.02,4.424,7.817
		l-0.168,1.569l1.549-0.296c0.424-0.083,0.771-0.121,1.088-0.121c0.911,0,1.798,0.234,2.567,0.675
		c1.482,0.857,2.443,2.437,2.637,4.337C41.395,54.254,40.983,56.034,40.07,57.615z"/>
	<path d="M21.218,54.14C17.03,54.136,9.539,60.243,9.539,67.777c0,7.532,5.227,1.957,11.679,1.957s11.679,5.575,11.679-1.957
		C32.897,60.243,25.406,54.14,21.218,54.14z"/>
	<path d="M23.11,45.29c0.808-3.017,3.232-4.991,5.412-4.404c2.182,0.584,3.294,3.504,2.483,6.521
		c-0.811,3.021-3.232,4.991-5.412,4.407C23.411,51.23,22.299,48.31,23.11,45.29z M16.845,51.818
		c2.182-0.584,3.294-3.503,2.483-6.523c-0.81-3.017-3.232-4.987-5.412-4.404c-2.182,0.584-3.294,3.505-2.483,6.521
		C12.242,50.431,14.663,52.402,16.845,51.818z M10.658,52.827c-1.382-2.396-3.908-3.531-5.639-2.53c-1.73,1-2.011,3.753-0.628,6.147
		c1.384,2.396,3.909,3.531,5.639,2.532C11.76,57.977,12.042,55.221,10.658,52.827z M37.421,50.294
		c-1.731-0.999-4.255,0.133-5.639,2.527c-1.385,2.396-1.103,5.15,0.628,6.15c1.731,0.999,4.255-0.133,5.639-2.53
		C39.432,54.044,39.149,51.292,37.421,50.294z"/>
</g>
</svg>