<svg width="90" height="90" viewBox="0 0 90 90" fill="none" xmlns="http://www.w3.org/2000/svg">
<path d="M49 11.625V12.4876L49.8533 12.6142C64.0578 14.7214 75.2786 25.9571 77.3858 40.1469L77.5125 41H78.375H80C82.2133 41 84 42.7867 84 45C84 47.2133 82.2133 49 80 49H78.375H77.5124L77.3858 49.8533C75.2786 64.0578 64.0429 75.2786 49.8531 77.3858L49 77.5125V78.375V80C49 82.2133 47.2133 84 45 84C42.7867 84 41 82.2133 41 80V78.375V77.5124L40.1467 77.3858C25.9418 75.2786 14.7214 64.0582 12.6142 49.8533L12.4876 49H11.625H10C7.78666 49 6 47.2133 6 45C6 42.7867 7.78666 41 10 41H11.625H12.4876L12.6142 40.1467C14.7214 25.9418 25.9418 14.7214 40.1467 12.6142L41 12.4876V11.625V10C41 7.78666 42.7867 6 45 6C47.2133 6 49 7.78666 49 10V11.625ZM21.7812 49H20.5441L20.8035 50.2096C22.8393 59.7046 30.3122 67.1609 39.79 69.1965L41 69.4563V68.2188V65C41 62.7867 42.7867 61 45 61C47.2133 61 49 62.7867 49 65V68.2188V69.4559L50.2096 69.1965C59.7046 67.1607 67.1609 59.6878 69.1965 50.21L69.4563 49H68.2188H65C62.7867 49 61 47.2133 61 45C61 42.7867 62.7867 41 65 41H68.2188H69.4559L69.1965 39.7904C67.1609 30.2961 59.7039 22.8391 50.2096 20.8035L49 20.5441V21.7812V25C49 27.2133 47.2133 29 45 29C42.7867 29 41 27.2133 41 25V21.7812V20.5441L39.7904 20.8035C30.2961 22.8391 22.8391 30.2961 20.8035 39.7904L20.5441 41H21.7812H25C27.2133 41 29 42.7867 29 45C29 47.2133 27.2133 49 25 49H21.7812ZM45 41C46.0609 41 47.0783 41.4214 47.8284 42.1716C48.5786 42.9217 49 43.9391 49 45C49 46.0609 48.5786 47.0783 47.8284 47.8284C47.0783 48.5786 46.0609 49 45 49C43.9391 49 42.9217 48.5786 42.1716 47.8284C41.4214 47.0783 41 46.0609 41 45C41 43.9391 41.4214 42.9217 42.1716 42.1716C42.9217 41.4214 43.9391 41 45 41Z" fill="#F3EEEA" stroke="#776B5D" stroke-width="2"/>
</svg>
