<?xml version="1.0" encoding="utf-8"?>
<!-- Generator: Adobe Illustrator 26.0.1, SVG Export Plug-In . SVG Version: 6.00 Build 0)  -->
<svg version="1.1" id="레이어_1" xmlns="http://www.w3.org/2000/svg" xmlns:xlink="http://www.w3.org/1999/xlink" x="0px"
	 y="0px" viewBox="0 0 245 88" style="enable-background:new 0 0 245 88;" xml:space="preserve">
<style type="text/css">
	.st0{fill:#F95001;}
</style>
<g>
	<path class="st0" d="M237.32,29.42c-0.67,0.88-1.48,1.56-2.59,1.82c-1.58,0.37-2.99,0.03-4.13-1.14c-1.17-1.2-1.53-2.64-1.07-4.25
		c0.34-1.2,1.12-2.15,1.93-3.06c0.72-0.79,1.51-1.49,2.51-1.94c1.66-0.75,3.14-0.17,3.83,1.51c0.46,1.13,0.48,2.32,0.43,3.52
		c-0.03,0.69-0.19,1.37-0.29,2.05C237.73,28.43,237.53,28.93,237.32,29.42z"/>
	<path class="st0" d="M217.73,40.9c-1.06-0.42-1.91-1.13-2.72-1.91c-1.41-1.35-3.11-2.06-5.06-2.1c-1.27-0.03-2.49-0.2-3.66-0.73
		c-3.14-1.44-4.84-5.33-3.86-8.63c0.89-3.02,3.67-5.24,6.85-5.29c1.21-0.02,2-0.59,2.49-1.7c1.43-3.27,4.99-5.2,8.38-4.52
		c2.61,0.53,4.3,2.19,5.19,4.65c0.7,1.91,0.6,3.82-0.14,5.71c-0.39,1-0.15,1.89,0.58,2.65c1.08,1.13,1.75,2.45,2,4
		c0.83,5.14-4.04,9.54-9.07,8.2C218.38,41.14,218.05,41.04,217.73,40.9z"/>
	<path class="st0" d="M216.15,13.36c-2.58-1.06-3.26-4.13-2.11-6.07c0.94-1.58,2.08-2.94,3.66-3.9c0.09-0.05,0.18-0.1,0.27-0.14
		c1.88-0.88,3.36-0.27,4.06,1.68c0.37,1.02,0.4,2.09,0.35,3.15c-0.04,0.81-0.17,1.6-0.38,2.38
		C221.33,13.01,218.6,14.37,216.15,13.36z"/>
	<path class="st0" d="M227.26,17.96c-2.45-1.01-3.42-3.91-2.08-6.19c0.9-1.54,2.03-2.86,3.58-3.78c0.42-0.25,0.87-0.45,1.36-0.52
		c1.49-0.21,2.63,0.61,3.08,2.26c0.49,1.82,0.36,3.63-0.16,5.42c-0.46,1.61-1.55,2.59-3.14,3.01C229,18.4,228.11,18.31,227.26,17.96
		z"/>
	<path class="st0" d="M201.36,13.25c0.9-1.61,2.2-3.32,4.28-4.25c1.6-0.71,3.09-0.04,3.7,1.59c0.6,1.6,0.51,3.24,0.23,4.89
		c-0.19,1.17-0.61,2.22-1.53,3.02c-1.52,1.33-3.74,1.45-5.37,0.28C201.01,17.59,200.42,15.47,201.36,13.25z"/>
</g>
<g>
	<path d="M9.81,56.68v9.14H2.4V39.95c0-4.14,1.3-5.69,5.62-5.69h6.08c6.41,0,10.98,3.1,10.98,10.62v1.19
		c0,7.52-4.57,10.62-10.98,10.62H9.81z M9.81,50.42h3.92c2.59,0,3.96-1.8,3.96-4.54v-0.83c0-2.74-1.37-4.54-3.96-4.54h-2.88
		c-0.83,0-1.04,0.18-1.04,1.04V50.42z"/>
	<path d="M35.52,46.75h9.83c2.09,0,2.92,1.73,2.92,3.17s-0.79,3.06-2.92,3.06h-9.83v5.51c0,0.86,0.22,1.04,1.04,1.04h9.47
		c2.12,0,2.92,1.62,2.92,3.1c0,1.48-0.83,3.2-2.92,3.2H33.75c-4.32,0-5.62-1.55-5.62-5.69V39.95c0-4.14,1.3-5.69,5.62-5.69h11.91
		c2.09,0,2.92,1.73,2.92,3.2c0,1.48-0.79,3.1-2.92,3.1h-9.11c-0.83,0-1.04,0.18-1.04,1.04V46.75z"/>
	<path d="M58.63,65.83V40.56h-5.51c-2.09,0-2.92-1.73-2.92-3.2c0-1.48,0.79-3.1,2.92-3.1h18.5c2.12,0,2.92,1.62,2.92,3.1
		c0,1.48-0.83,3.2-2.92,3.2h-5.51v25.27H58.63z"/>
	<path d="M117.95,65.83h-6.8l-1.62-18.9l-3.67,15.84c-0.29,1.22-2.48,1.76-3.85,1.76c-1.37,0-3.56-0.54-3.85-1.76L94.52,47
		l-1.66,18.83h-6.8l3.02-28.51c0.22-2.2,2.16-3.46,3.78-3.6c1.73-0.14,4.25,0.58,4.79,2.95L102.01,56l4.36-19.33
		c0.54-2.38,3.06-3.1,4.79-2.95c1.62,0.14,3.56,1.4,3.78,3.6L117.95,65.83z"/>
	<path d="M128.58,46.75h9.83c2.09,0,2.92,1.73,2.92,3.17s-0.79,3.06-2.92,3.06h-9.83v5.51c0,0.86,0.22,1.04,1.04,1.04h9.47
		c2.12,0,2.92,1.62,2.92,3.1c0,1.48-0.83,3.2-2.92,3.2h-12.27c-4.32,0-5.62-1.55-5.62-5.69V39.95c0-4.14,1.3-5.69,5.62-5.69h11.91
		c2.09,0,2.92,1.73,2.92,3.2c0,1.48-0.79,3.1-2.92,3.1h-9.11c-0.83,0-1.04,0.18-1.04,1.04V46.75z"/>
	<path d="M176.24,65.83h-6.8l-1.62-18.9l-3.67,15.84c-0.29,1.22-2.48,1.76-3.85,1.76c-1.37,0-3.56-0.54-3.85-1.76L152.8,47
		l-1.66,18.83h-6.8l3.02-28.51c0.22-2.2,2.16-3.46,3.78-3.6c1.73-0.14,4.25,0.58,4.79,2.95L160.29,56l4.36-19.33
		c0.54-2.38,3.06-3.1,4.79-2.95c1.62,0.14,3.56,1.4,3.78,3.6L176.24,65.83z"/>
	<path d="M178.58,44.66c0-8.28,6.66-10.98,12.06-10.98c5.29,0,12.06,2.7,12.06,10.98v10.76c0,8.28-6.77,10.98-12.06,10.98
		c-5.29,0-12.06-2.7-12.06-10.98V44.66z M195.36,44.44c0-3.17-2.09-4.61-4.72-4.61c-2.63,0-4.72,1.44-4.72,4.61v11.19
		c0,2.88,2.09,4.61,4.72,4.61c2.63,0,4.72-1.73,4.72-4.61V44.44z"/>
	<path d="M206.12,37.28c0-2.48,1.73-3.6,3.74-3.6c2.02,0,3.74,1.12,3.74,3.6v28.54h-7.49V37.28z"/>
	<path d="M234.96,65.83l-5.8-10.4h-4.21v10.4h-7.38V39.95c0-4.14,1.3-5.69,5.62-5.69h6.62c6.23,0,10.8,2.95,10.8,9.4v2.3
		c0,3.56-1.94,6.26-4.68,7.88l7.16,11.99H234.96z M224.95,49.34h4.68c2.41,0,3.67-1.55,3.67-3.38v-2.12c0-1.84-1.26-3.38-3.67-3.38
		h-3.64c-0.83,0-1.04,0.18-1.04,1.04V49.34z"/>
</g>
<g>
	<path class="st0" d="M97.32,73.42c-0.67,0.88-1.48,1.56-2.59,1.82c-1.58,0.37-2.99,0.03-4.13-1.14c-1.17-1.2-1.53-2.64-1.07-4.25
		c0.34-1.2,1.12-2.15,1.93-3.06c0.72-0.79,1.51-1.49,2.51-1.94c1.66-0.75,3.14-0.17,3.83,1.51c0.46,1.13,0.48,2.32,0.43,3.52
		c-0.03,0.69-0.19,1.37-0.29,2.05C97.73,72.43,97.53,72.93,97.32,73.42z"/>
	<path class="st0" d="M77.73,84.9c-1.06-0.42-1.91-1.13-2.72-1.91c-1.41-1.35-3.11-2.06-5.06-2.1c-1.27-0.03-2.49-0.2-3.66-0.73
		c-3.14-1.44-4.84-5.33-3.86-8.63c0.89-3.02,3.67-5.24,6.85-5.29c1.21-0.02,2-0.59,2.49-1.7c1.43-3.27,4.99-5.2,8.38-4.52
		c2.61,0.53,4.3,2.19,5.19,4.65c0.7,1.91,0.6,3.82-0.14,5.71c-0.39,1-0.15,1.89,0.58,2.65c1.08,1.13,1.75,2.45,2,4
		c0.83,5.14-4.04,9.54-9.07,8.2C78.38,85.14,78.05,85.04,77.73,84.9z"/>
	<path class="st0" d="M76.15,57.36c-2.58-1.06-3.26-4.13-2.11-6.07c0.94-1.58,2.08-2.94,3.66-3.9c0.09-0.05,0.18-0.1,0.27-0.14
		c1.88-0.88,3.36-0.27,4.06,1.68c0.37,1.02,0.4,2.09,0.35,3.15c-0.04,0.81-0.17,1.6-0.38,2.38C81.33,57.01,78.6,58.37,76.15,57.36z"
		/>
	<path class="st0" d="M87.26,61.96c-2.45-1.01-3.42-3.91-2.08-6.19c0.9-1.54,2.03-2.86,3.58-3.78c0.42-0.25,0.87-0.45,1.36-0.52
		c1.49-0.21,2.63,0.61,3.08,2.26c0.49,1.82,0.36,3.63-0.16,5.42c-0.46,1.61-1.55,2.59-3.14,3.01C89,62.4,88.11,62.31,87.26,61.96z"
		/>
	<path class="st0" d="M61.36,57.25c0.9-1.61,2.2-3.32,4.28-4.25c1.6-0.71,3.09-0.04,3.7,1.59c0.6,1.6,0.51,3.24,0.23,4.89
		c-0.19,1.17-0.61,2.22-1.53,3.02c-1.52,1.33-3.74,1.45-5.37,0.28C61.01,61.59,60.42,59.47,61.36,57.25z"/>
</g>
</svg>
